<?xml version="1.0" encoding="UTF-8" ?>
<svg version="1.1" width="64" height="64" xmlns="http://www.w3.org/2000/svg" shape-rendering="crispEdges">
<rect x="26" y="2" width="11" height="15" fill="#AA854E" />
<rect x="22" y="3" width="4" height="29" fill="#AA854E" />
<rect x="37" y="3" width="4" height="14" fill="#AA854E" />
<rect x="20" y="4" width="2" height="30" fill="#AA854E" />
<rect x="41" y="4" width="2" height="25" fill="#AA854E" />
<rect x="17" y="5" width="3" height="29" fill="#AA854E" />
<rect x="43" y="5" width="3" height="32" fill="#AA854E" />
<rect x="16" y="6" width="1" height="27" fill="#AA854E" />
<rect x="46" y="6" width="1" height="36" fill="#AA854E" />
<rect x="14" y="7" width="2" height="26" fill="#AA854E" />
<rect x="47" y="7" width="2" height="49" fill="#AA854E" />
<rect x="13" y="8" width="1" height="24" fill="#AA854E" />
<rect x="49" y="8" width="1" height="49" fill="#AA854E" />
<rect x="12" y="9" width="1" height="23" fill="#AA854E" />
<rect x="50" y="9" width="1" height="47" fill="#AA854E" />
<rect x="11" y="10" width="1" height="21" fill="#AA854E" />
<rect x="51" y="10" width="1" height="45" fill="#AA854E" />
<rect x="10" y="11" width="1" height="20" fill="#AA854E" />
<rect x="52" y="11" width="1" height="43" fill="#AA854E" />
<rect x="9" y="12" width="1" height="19" fill="#AA854E" />
<rect x="53" y="12" width="1" height="41" fill="#AA854E" />
<rect x="8" y="13" width="1" height="17" fill="#AA854E" />
<rect x="54" y="13" width="1" height="39" fill="#AA854E" />
<rect x="7" y="14" width="1" height="16" fill="#AA854E" />
<rect x="55" y="14" width="1" height="37" fill="#AA854E" />
<rect x="6" y="15" width="1" height="14" fill="#AA854E" />
<rect x="56" y="15" width="1" height="35" fill="#AA854E" />
<rect x="5" y="17" width="1" height="12" fill="#AA854E" />
<rect x="26" y="17" width="10" height="1" fill="#AA854E" />
<rect x="36" y="17" width="2" height="6" fill="#564326" />
<rect x="38" y="17" width="3" height="1" fill="#AA854E" />
<rect x="57" y="17" width="1" height="31" fill="#AA854E" />
<rect x="4" y="18" width="1" height="11" fill="#AA854E" />
<rect x="26" y="18" width="9" height="2" fill="#AA854E" />
<rect x="35" y="18" width="1" height="5" fill="#564326" />
<rect x="38" y="18" width="1" height="9" fill="#564326" />
<rect x="39" y="18" width="2" height="2" fill="#AA854E" />
<rect x="58" y="18" width="1" height="29" fill="#AA854E" />
<rect x="26" y="20" width="8" height="2" fill="#AA854E" />
<rect x="34" y="20" width="1" height="3" fill="#564326" />
<rect x="39" y="20" width="1" height="14" fill="#564326" />
<rect x="40" y="20" width="1" height="2" fill="#AA854E" />
<rect x="3" y="21" width="1" height="7" fill="#AA854E" />
<rect x="59" y="21" width="1" height="23" fill="#AA854E" />
<rect x="26" y="22" width="7" height="4" fill="#AA854E" />
<rect x="33" y="22" width="1" height="2" fill="#564326" />
<rect x="40" y="22" width="1" height="12" fill="#564326" />
<rect x="2" y="23" width="1" height="5" fill="#AA854E" />
<rect x="34" y="23" width="3" height="1" fill="#7A6C49" />
<rect x="37" y="23" width="1" height="1" fill="#564326" />
<rect x="60" y="23" width="1" height="19" fill="#AA854E" />
<rect x="33" y="24" width="2" height="1" fill="#7A6C49" />
<rect x="35" y="24" width="1" height="2" fill="#CCC3B6" />
<rect x="36" y="24" width="2" height="1" fill="#7A6C49" />
<rect x="33" y="25" width="1" height="2" fill="#B2AB9F" />
<rect x="34" y="25" width="1" height="5" fill="#E6DCCC" />
<rect x="36" y="25" width="1" height="5" fill="#CCC3B6" />
<rect x="37" y="25" width="1" height="8" fill="#7A6C49" />
<rect x="26" y="26" width="6" height="2" fill="#AA854E" />
<rect x="32" y="26" width="1" height="3" fill="#B2AB9F" />
<rect x="35" y="26" width="1" height="3" fill="#E6DCCC" />
<rect x="1" y="27" width="1" height="1" fill="#AA854E" />
<rect x="33" y="27" width="1" height="4" fill="#E6DCCC" />
<rect x="38" y="27" width="1" height="6" fill="#7A6C49" />
<rect x="61" y="27" width="1" height="11" fill="#AA854E" />
<rect x="1" y="28" width="3" height="1" fill="#564326" />
<rect x="26" y="28" width="5" height="2" fill="#AA854E" />
<rect x="31" y="28" width="1" height="3" fill="#B2AB9F" />
<rect x="1" y="29" width="1" height="4" fill="#564326" />
<rect x="2" y="29" width="1" height="5" fill="#7A6C49" />
<rect x="3" y="29" width="4" height="1" fill="#564326" />
<rect x="32" y="29" width="1" height="2" fill="#E6DCCC" />
<rect x="35" y="29" width="1" height="2" fill="#CCC3B6" />
<rect x="41" y="29" width="1" height="6" fill="#564326" />
<rect x="42" y="29" width="1" height="4" fill="#AA854E" />
<rect x="3" y="30" width="1" height="5" fill="#7A6C49" />
<rect x="4" y="30" width="5" height="1" fill="#564326" />
<rect x="26" y="30" width="4" height="1" fill="#AA854E" />
<rect x="30" y="30" width="1" height="1" fill="#B2AB9F" />
<rect x="34" y="30" width="1" height="1" fill="#CCC3B6" />
<rect x="36" y="30" width="1" height="2" fill="#7A6C49" />
<rect x="4" y="31" width="2" height="5" fill="#7A6C49" />
<rect x="6" y="31" width="6" height="1" fill="#564326" />
<rect x="26" y="31" width="9" height="1" fill="#80704C" />
<rect x="35" y="31" width="1" height="1" fill="#7A6C49" />
<rect x="6" y="32" width="3" height="1" fill="#7A6C49" />
<rect x="9" y="32" width="5" height="1" fill="#564326" />
<rect x="22" y="32" width="2" height="1" fill="#AA854E" />
<rect x="24" y="32" width="2" height="2" fill="#806F47" />
<rect x="26" y="32" width="4" height="1" fill="#867651" />
<rect x="30" y="32" width="7" height="1" fill="#80704C" />
<rect x="1" y="33" width="1" height="5" fill="#AA854E" />
<rect x="6" y="33" width="1" height="1" fill="#7A6C49" />
<rect x="7" y="33" width="1" height="3" fill="#B2AB9F" />
<rect x="8" y="33" width="3" height="1" fill="#7A6C49" />
<rect x="11" y="33" width="6" height="1" fill="#564326" />
<rect x="22" y="33" width="2" height="3" fill="#806F47" />
<rect x="26" y="33" width="1" height="1" fill="#867651" />
<rect x="27" y="33" width="7" height="1" fill="#CCC3B6" />
<rect x="34" y="33" width="1" height="1" fill="#564326" />
<rect x="35" y="33" width="4" height="1" fill="#80704C" />
<rect x="42" y="33" width="1" height="3" fill="#564326" />
<rect x="2" y="34" width="1" height="8" fill="#AA854E" />
<rect x="6" y="34" width="1" height="1" fill="#B2AB9F" />
<rect x="8" y="34" width="2" height="1" fill="#E6DCCC" />
<rect x="10" y="34" width="3" height="1" fill="#7A6C49" />
<rect x="13" y="34" width="7" height="1" fill="#564326" />
<rect x="20" y="34" width="2" height="5" fill="#806F47" />
<rect x="24" y="34" width="1" height="1" fill="#806F47" />
<rect x="25" y="34" width="1" height="1" fill="#564326" />
<rect x="26" y="34" width="2" height="1" fill="#CCC3B6" />
<rect x="28" y="34" width="5" height="9" fill="#E6DCCC" />
<rect x="33" y="34" width="2" height="1" fill="#CCC3B6" />
<rect x="35" y="34" width="1" height="1" fill="#564326" />
<rect x="36" y="34" width="5" height="1" fill="#80704C" />
<rect x="3" y="35" width="1" height="9" fill="#AA854E" />
<rect x="6" y="35" width="1" height="2" fill="#7A6C49" />
<rect x="8" y="35" width="1" height="2" fill="#B2AB9F" />
<rect x="9" y="35" width="3" height="1" fill="#E6DCCC" />
<rect x="12" y="35" width="3" height="1" fill="#7A6C49" />
<rect x="15" y="35" width="4" height="1" fill="#564326" />
<rect x="19" y="35" width="1" height="6" fill="#806F47" />
<rect x="24" y="35" width="1" height="1" fill="#564326" />
<rect x="25" y="35" width="2" height="1" fill="#CCC3B6" />
<rect x="27" y="35" width="1" height="13" fill="#E6DCCC" />
<rect x="33" y="35" width="1" height="9" fill="#E6DCCC" />
<rect x="34" y="35" width="2" height="1" fill="#CCC3B6" />
<rect x="36" y="35" width="1" height="1" fill="#564326" />
<rect x="37" y="35" width="5" height="1" fill="#80704C" />
<rect x="4" y="36" width="2" height="11" fill="#AA854E" />
<rect x="7" y="36" width="1" height="2" fill="#7A6C49" />
<rect x="9" y="36" width="1" height="2" fill="#B2AB9F" />
<rect x="10" y="36" width="4" height="1" fill="#E6DCCC" />
<rect x="14" y="36" width="3" height="1" fill="#7A6C49" />
<rect x="17" y="36" width="1" height="1" fill="#564326" />
<rect x="18" y="36" width="1" height="8" fill="#806F47" />
<rect x="22" y="36" width="1" height="2" fill="#806F47" />
<rect x="23" y="36" width="1" height="2" fill="#564326" />
<rect x="24" y="36" width="2" height="3" fill="#CCC3B6" />
<rect x="26" y="36" width="1" height="3" fill="#E6DCCC" />
<rect x="34" y="36" width="1" height="9" fill="#E6DCCC" />
<rect x="35" y="36" width="2" height="1" fill="#CCC3B6" />
<rect x="37" y="36" width="1" height="1" fill="#867651" />
<rect x="38" y="36" width="5" height="1" fill="#80704C" />
<rect x="6" y="37" width="1" height="13" fill="#AA854E" />
<rect x="8" y="37" width="1" height="2" fill="#7A6C49" />
<rect x="10" y="37" width="1" height="2" fill="#B2AB9F" />
<rect x="11" y="37" width="5" height="1" fill="#E6DCCC" />
<rect x="16" y="37" width="1" height="1" fill="#7A6C49" />
<rect x="17" y="37" width="1" height="6" fill="#806F47" />
<rect x="35" y="37" width="1" height="2" fill="#E6DCCC" />
<rect x="36" y="37" width="1" height="1" fill="#CCC3B6" />
<rect x="37" y="37" width="3" height="7" fill="#1A1A1A" />
<rect x="40" y="37" width="4" height="1" fill="#80704C" />
<rect x="44" y="37" width="2" height="1" fill="#AA854E" />
<rect x="7" y="38" width="1" height="13" fill="#AA854E" />
<rect x="9" y="38" width="1" height="2" fill="#7A6C49" />
<rect x="11" y="38" width="1" height="2" fill="#B2AB9F" />
<rect x="12" y="38" width="4" height="1" fill="#E6DCCC" />
<rect x="16" y="38" width="1" height="6" fill="#867651" />
<rect x="22" y="38" width="1" height="1" fill="#867651" />
<rect x="23" y="38" width="1" height="1" fill="#CCC3B6" />
<rect x="36" y="38" width="1" height="2" fill="#1A1A1A" />
<rect x="40" y="38" width="1" height="5" fill="#1A1A1A" />
<rect x="41" y="38" width="2" height="1" fill="#573A10" />
<rect x="43" y="38" width="2" height="1" fill="#80704C" />
<rect x="45" y="38" width="1" height="2" fill="#AA854E" />
<rect x="8" y="39" width="1" height="13" fill="#AA854E" />
<rect x="10" y="39" width="1" height="2" fill="#7A6C49" />
<rect x="12" y="39" width="1" height="2" fill="#B2AB9F" />
<rect x="13" y="39" width="3" height="1" fill="#E6DCCC" />
<rect x="20" y="39" width="1" height="1" fill="#806F47" />
<rect x="21" y="39" width="4" height="3" fill="#1A1A1A" />
<rect x="25" y="39" width="2" height="1" fill="#CCC3B6" />
<rect x="35" y="39" width="1" height="3" fill="#1A1A1A" />
<rect x="41" y="39" width="1" height="3" fill="#1A1A1A" />
<rect x="42" y="39" width="3" height="1" fill="#573A10" />
<rect x="9" y="40" width="1" height="13" fill="#AA854E" />
<rect x="11" y="40" width="1" height="2" fill="#7A6C49" />
<rect x="13" y="40" width="2" height="2" fill="#B2AB9F" />
<rect x="15" y="40" width="1" height="3" fill="#867651" />
<rect x="20" y="40" width="1" height="1" fill="#1A1A1A" />
<rect x="25" y="40" width="1" height="5" fill="#1A1A1A" />
<rect x="26" y="40" width="1" height="1" fill="#CCC3B6" />
<rect x="36" y="40" width="1" height="1" fill="#E6DCCC" />
<rect x="42" y="40" width="2" height="1" fill="#7A6C49" />
<rect x="44" y="40" width="2" height="1" fill="#573A10" />
<rect x="10" y="41" width="1" height="13" fill="#AA854E" />
<rect x="12" y="41" width="1" height="2" fill="#7A6C49" />
<rect x="19" y="41" width="1" height="3" fill="#1A1A1A" />
<rect x="20" y="41" width="1" height="3" fill="#E6DCCC" />
<rect x="26" y="41" width="1" height="3" fill="#1A1A1A" />
<rect x="36" y="41" width="1" height="2" fill="#1A1A1A" />
<rect x="42" y="41" width="1" height="4" fill="#E6DCCC" />
<rect x="43" y="41" width="2" height="1" fill="#7A6C49" />
<rect x="45" y="41" width="1" height="4" fill="#573A10" />
<rect x="11" y="42" width="1" height="13" fill="#AA854E" />
<rect x="13" y="42" width="2" height="2" fill="#7A6C49" />
<rect x="21" y="42" width="1" height="4" fill="#1A1A1A" />
<rect x="22" y="42" width="1" height="1" fill="#E6DCCC" />
<rect x="23" y="42" width="2" height="4" fill="#1A1A1A" />
<rect x="35" y="42" width="1" height="5" fill="#E6DCCC" />
<rect x="41" y="42" width="1" height="4" fill="#E6DCCC" />
<rect x="43" y="42" width="1" height="3" fill="#E6DCCC" />
<rect x="44" y="42" width="1" height="4" fill="#7A6C49" />
<rect x="46" y="42" width="1" height="3" fill="#573A10" />
<rect x="12" y="43" width="1" height="13" fill="#AA854E" />
<rect x="15" y="43" width="1" height="4" fill="#7A6C49" />
<rect x="17" y="43" width="1" height="2" fill="#867651" />
<rect x="22" y="43" width="1" height="3" fill="#1A1A1A" />
<rect x="28" y="43" width="2" height="1" fill="#E6DCCC" />
<rect x="30" y="43" width="3" height="3" fill="#CCC3B6" />
<rect x="36" y="43" width="1" height="4" fill="#E6DCCC" />
<rect x="40" y="43" width="1" height="4" fill="#E6DCCC" />
<rect x="13" y="44" width="1" height="13" fill="#AA854E" />
<rect x="14" y="44" width="1" height="4" fill="#7A6C49" />
<rect x="16" y="44" width="1" height="2" fill="#7A6C49" />
<rect x="18" y="44" width="1" height="1" fill="#573A10" />
<rect x="19" y="44" width="1" height="2" fill="#7A6C49" />
<rect x="20" y="44" width="1" height="1" fill="#1A1A1A" />
<rect x="26" y="44" width="1" height="3" fill="#E6DCCC" />
<rect x="28" y="44" width="1" height="1" fill="#E6DCCC" />
<rect x="29" y="44" width="1" height="2" fill="#CCC3B6" />
<rect x="33" y="44" width="1" height="2" fill="#CCC3B6" />
<rect x="37" y="44" width="3" height="1" fill="#E6DCCC" />
<rect x="17" y="45" width="1" height="1" fill="#573A10" />
<rect x="18" y="45" width="1" height="2" fill="#7A6C49" />
<rect x="20" y="45" width="1" height="4" fill="#867651" />
<rect x="25" y="45" width="1" height="2" fill="#E6DCCC" />
<rect x="28" y="45" width="1" height="1" fill="#CCC3B6" />
<rect x="34" y="45" width="1" height="1" fill="#CCC3B6" />
<rect x="37" y="45" width="1" height="1" fill="#E6DCCC" />
<rect x="38" y="45" width="1" height="1" fill="#F6F6F6" />
<rect x="39" y="45" width="1" height="3" fill="#E6DCCC" />
<rect x="42" y="45" width="2" height="1" fill="#CCC3B6" />
<rect x="45" y="45" width="2" height="2" fill="#7A6C49" />
<rect x="16" y="46" width="1" height="1" fill="#573A10" />
<rect x="17" y="46" width="1" height="6" fill="#7A6C49" />
<rect x="19" y="46" width="1" height="4" fill="#867651" />
<rect x="21" y="46" width="2" height="2" fill="#867651" />
<rect x="23" y="46" width="2" height="1" fill="#E6DCCC" />
<rect x="28" y="46" width="1" height="1" fill="#91674D" />
<rect x="29" y="46" width="5" height="1" fill="#E1BAAB" />
<rect x="34" y="46" width="1" height="1" fill="#91674D" />
<rect x="37" y="46" width="1" height="1" fill="#F6F6F6" />
<rect x="38" y="46" width="1" height="2" fill="#E6DCCC" />
<rect x="41" y="46" width="2" height="1" fill="#CCC3B6" />
<rect x="43" y="46" width="2" height="1" fill="#756251" />
<rect x="5" y="47" width="1" height="1" fill="#AA854E" />
<rect x="15" y="47" width="1" height="6" fill="#573A10" />
<rect x="16" y="47" width="1" height="4" fill="#7A6C49" />
<rect x="18" y="47" width="1" height="2" fill="#867651" />
<rect x="23" y="47" width="1" height="4" fill="#E6DCCC" />
<rect x="24" y="47" width="3" height="1" fill="#F6F6F6" />
<rect x="28" y="47" width="1" height="2" fill="#E6DCCC" />
<rect x="29" y="47" width="1" height="1" fill="#91674D" />
<rect x="30" y="47" width="3" height="1" fill="#E1BAAB" />
<rect x="33" y="47" width="1" height="1" fill="#91674D" />
<rect x="34" y="47" width="2" height="3" fill="#CCC3B6" />
<rect x="36" y="47" width="1" height="1" fill="#F6F6F6" />
<rect x="37" y="47" width="1" height="1" fill="#E6DCCC" />
<rect x="40" y="47" width="2" height="1" fill="#CCC3B6" />
<rect x="42" y="47" width="1" height="9" fill="#756251" />
<rect x="43" y="47" width="2" height="1" fill="#665546" />
<rect x="45" y="47" width="1" height="2" fill="#756251" />
<rect x="46" y="47" width="1" height="1" fill="#665546" />
<rect x="14" y="48" width="1" height="3" fill="#573A10" />
<rect x="21" y="48" width="2" height="1" fill="#7A6C49" />
<rect x="24" y="48" width="3" height="2" fill="#E6DCCC" />
<rect x="27" y="48" width="1" height="1" fill="#F6F6F6" />
<rect x="29" y="48" width="1" height="2" fill="#E6DCCC" />
<rect x="30" y="48" width="3" height="1" fill="#91674D" />
<rect x="33" y="48" width="1" height="2" fill="#CCC3B6" />
<rect x="36" y="48" width="2" height="1" fill="#CCC3B6" />
<rect x="38" y="48" width="1" height="1" fill="#F6F6F6" />
<rect x="39" y="48" width="1" height="1" fill="#CCC3B6" />
<rect x="40" y="48" width="1" height="1" fill="#F6F6F6" />
<rect x="41" y="48" width="1" height="9" fill="#756251" />
<rect x="43" y="48" width="2" height="1" fill="#756251" />
<rect x="46" y="48" width="1" height="2" fill="#756251" />
<rect x="18" y="49" width="1" height="3" fill="#7A6C49" />
<rect x="20" y="49" width="2" height="1" fill="#7A6C49" />
<rect x="22" y="49" width="1" height="1" fill="#E6DCCC" />
<rect x="27" y="49" width="1" height="3" fill="#E6DCCC" />
<rect x="28" y="49" width="1" height="1" fill="#F6F6F6" />
<rect x="30" y="49" width="1" height="2" fill="#CCC3B6" />
<rect x="31" y="49" width="1" height="2" fill="#695644" />
<rect x="32" y="49" width="1" height="1" fill="#CCC3B6" />
<rect x="36" y="49" width="1" height="1" fill="#F6F6F6" />
<rect x="37" y="49" width="4" height="1" fill="#756251" />
<rect x="43" y="49" width="1" height="6" fill="#756251" />
<rect x="44" y="49" width="2" height="1" fill="#665546" />
<rect x="19" y="50" width="2" height="1" fill="#7A6C49" />
<rect x="21" y="50" width="1" height="2" fill="#573A10" />
<rect x="22" y="50" width="1" height="3" fill="#CCC3B6" />
<rect x="24" y="50" width="1" height="1" fill="#F6F6F6" />
<rect x="25" y="50" width="1" height="2" fill="#E6DCCC" />
<rect x="26" y="50" width="1" height="1" fill="#F6F6F6" />
<rect x="28" y="50" width="1" height="1" fill="#E6DCCC" />
<rect x="29" y="50" width="1" height="2" fill="#CCC3B6" />
<rect x="32" y="50" width="3" height="1" fill="#695644" />
<rect x="35" y="50" width="2" height="1" fill="#756251" />
<rect x="37" y="50" width="1" height="1" fill="#F6F6F6" />
<rect x="38" y="50" width="3" height="1" fill="#756251" />
<rect x="44" y="50" width="2" height="1" fill="#756251" />
<rect x="46" y="50" width="1" height="1" fill="#665546" />
<rect x="14" y="51" width="1" height="7" fill="#AA854E" />
<rect x="16" y="51" width="1" height="4" fill="#573A10" />
<rect x="19" y="51" width="1" height="1" fill="#7A6C49" />
<rect x="20" y="51" width="1" height="2" fill="#573A10" />
<rect x="23" y="51" width="1" height="3" fill="#CCC3B6" />
<rect x="24" y="51" width="1" height="1" fill="#E6DCCC" />
<rect x="26" y="51" width="1" height="1" fill="#E6DCCC" />
<rect x="28" y="51" width="1" height="1" fill="#F6F6F6" />
<rect x="30" y="51" width="1" height="1" fill="#695644" />
<rect x="31" y="51" width="4" height="1" fill="#E6DCCC" />
<rect x="35" y="51" width="1" height="1" fill="#695644" />
<rect x="36" y="51" width="2" height="8" fill="#756251" />
<rect x="38" y="51" width="2" height="1" fill="#F6F6F6" />
<rect x="40" y="51" width="1" height="7" fill="#756251" />
<rect x="44" y="51" width="1" height="2" fill="#756251" />
<rect x="45" y="51" width="1" height="9" fill="#665546" />
<rect x="46" y="51" width="1" height="2" fill="#AA854E" />
<rect x="17" y="52" width="3" height="2" fill="#573A10" />
<rect x="21" y="52" width="1" height="2" fill="#867651" />
<rect x="24" y="52" width="3" height="1" fill="#CCC3B6" />
<rect x="27" y="52" width="1" height="1" fill="#F6F6F6" />
<rect x="28" y="52" width="1" height="1" fill="#CCC3B6" />
<rect x="29" y="52" width="1" height="1" fill="#695644" />
<rect x="30" y="52" width="1" height="1" fill="#E6DCCC" />
<rect x="31" y="52" width="4" height="1" fill="#CCC3B6" />
<rect x="35" y="52" width="1" height="8" fill="#756251" />
<rect x="38" y="52" width="2" height="6" fill="#756251" />
<rect x="15" y="53" width="1" height="5" fill="#AA854E" />
<rect x="20" y="53" width="1" height="2" fill="#867651" />
<rect x="22" y="53" width="1" height="4" fill="#867651" />
<rect x="24" y="53" width="2" height="2" fill="#CCC3B6" />
<rect x="26" y="53" width="1" height="1" fill="#F6F6F6" />
<rect x="27" y="53" width="1" height="1" fill="#CCC3B6" />
<rect x="28" y="53" width="1" height="1" fill="#695644" />
<rect x="29" y="53" width="1" height="1" fill="#E6DCCC" />
<rect x="30" y="53" width="1" height="1" fill="#CCC3B6" />
<rect x="31" y="53" width="4" height="8" fill="#756251" />
<rect x="44" y="53" width="1" height="7" fill="#665546" />
<rect x="46" y="53" width="1" height="6" fill="#665546" />
<rect x="17" y="54" width="2" height="1" fill="#573A10" />
<rect x="19" y="54" width="1" height="4" fill="#867651" />
<rect x="21" y="54" width="1" height="1" fill="#573A10" />
<rect x="23" y="54" width="1" height="2" fill="#867651" />
<rect x="26" y="54" width="1" height="1" fill="#CCC3B6" />
<rect x="27" y="54" width="1" height="1" fill="#695644" />
<rect x="28" y="54" width="1" height="1" fill="#E6DCCC" />
<rect x="29" y="54" width="1" height="1" fill="#CCC3B6" />
<rect x="30" y="54" width="1" height="7" fill="#756251" />
<rect x="16" y="55" width="1" height="4" fill="#AA854E" />
<rect x="17" y="55" width="1" height="1" fill="#573A10" />
<rect x="18" y="55" width="1" height="2" fill="#867651" />
<rect x="20" y="55" width="1" height="1" fill="#573A10" />
<rect x="21" y="55" width="1" height="3" fill="#867651" />
<rect x="24" y="55" width="1" height="1" fill="#867651" />
<rect x="25" y="55" width="1" height="1" fill="#CCC3B6" />
<rect x="26" y="55" width="1" height="6" fill="#756251" />
<rect x="27" y="55" width="1" height="1" fill="#E6DCCC" />
<rect x="28" y="55" width="1" height="1" fill="#CCC3B6" />
<rect x="29" y="55" width="1" height="6" fill="#756251" />
<rect x="43" y="55" width="1" height="5" fill="#665546" />
<rect x="17" y="56" width="1" height="4" fill="#CCC3B6" />
<rect x="20" y="56" width="1" height="2" fill="#867651" />
<rect x="23" y="56" width="3" height="4" fill="#756251" />
<rect x="27" y="56" width="2" height="5" fill="#756251" />
<rect x="42" y="56" width="1" height="5" fill="#665546" />
<rect x="47" y="56" width="1" height="2" fill="#665546" />
<rect x="48" y="56" width="1" height="1" fill="#AA854E" />
<rect x="18" y="57" width="1" height="3" fill="#E6DCCC" />
<rect x="22" y="57" width="1" height="3" fill="#756251" />
<rect x="41" y="57" width="1" height="4" fill="#665546" />
<rect x="48" y="57" width="1" height="1" fill="#665546" />
<rect x="19" y="58" width="1" height="2" fill="#E6DCCC" />
<rect x="20" y="58" width="2" height="1" fill="#756251" />
<rect x="38" y="58" width="1" height="1" fill="#756251" />
<rect x="39" y="58" width="2" height="4" fill="#665546" />
<rect x="20" y="59" width="2" height="2" fill="#E6DCCC" />
<rect x="36" y="59" width="1" height="1" fill="#756251" />
<rect x="37" y="59" width="2" height="3" fill="#665546" />
<rect x="22" y="60" width="2" height="1" fill="#E6DCCC" />
<rect x="24" y="60" width="2" height="1" fill="#756251" />
<rect x="35" y="60" width="2" height="3" fill="#665546" />
<rect x="22" y="61" width="1" height="1" fill="#E6DCCC" />
<rect x="23" y="61" width="12" height="1" fill="#665546" />
<rect x="26" y="62" width="9" height="1" fill="#665546" />
</svg>